 ######## ######## ######## ##          ######## ########  ######## ######## 
 ##       ##       ##       ##          ##       ##     ## ##       ##       
 ##       ##       ##       ##          ##       ##     ## ##       ##       
 ######   ######   ######   ##          ######   ########  ######   ######   
 ##       ##       ##       ##          ##       ##   ##   ##       ##       
 ##       ##       ##       ##          ##       ##    ##  ##       ##       
 ##       ######## ######## ########    ##       ##     ## ######## ######## 

 Genre:Comedy 
 Language:English
 IMDb:  http://www.imdb.com/title/tt1535101/
 Source:DVD9

 Format : AVI
 Format/Info : Audio Video Interleave
 File size : 1.08 GiB
 Duration : 1h 48mn
 Overall bit rate : 1 417 Kbps

 Video
 ID : 0
 Format : MPEG-4 Visual
 Format profile : Advanced Simple@L5
 Format settings, BVOP : Yes
 Format settings, QPel : No
 Format settings, GMC : No warppoints
 Format settings, Matrix : Default (H.263)
 Muxing mode : Packed bitstream
 Codec ID : XVID
 Codec ID/Hint : XviD
 Duration : 1h 48mn
 Bit rate : 959 Kbps
 Width : 720 pixels
 Height : 304 pixels
 Display aspect ratio : 2.35:1
 Frame rate : 25.000 fps
 Color space : YUV
 Chroma subsampling : 4:2:0
 Bit depth : 8 bits
 Scan type : Progressive
 Bits/(Pixel*Frame) : 0.175
 Stream size : 748 MiB (68%)

 Audio
 ID : 1
 Format : AC-3
 Format/Info : Audio Coding 3
 Mode extension : CM (complete main)
 Codec ID : 2000
 Duration : 1h 48mn
 Bit rate mode : Constant
 Bit rate : 448 Kbps
 Channel(s) : 6 channels
 Channel positions : Front: L C R, Side: L R, LFE
 Sampling rate : 48.0 KHz
 Bit depth : 16 bits
 Stream size : 349 MiB (32%)
 Alignment : Split accross interleaves
 Interleave, duration : 40 ms (1.00 video frame)
 Interleave, preload duration : 500 ms


 Plot:
 Two brothers attempt to become global rock stars but can only look on as old school friends U2 become the biggest band in the world.




================================== 
http://thepiratebay.org/user/hiest
==================================




Screens:
 
http://www.grinshare.com/img/HGD1D3.jpg


 ######## ######## ######## ##          ######## ########  ######## ######## 
 ##       ##       ##       ##          ##       ##     ## ##       ##       
 ##       ##       ##       ##          ##       ##     ## ##       ##       
 ######   ######   ######   ##          ######   ########  ######   ######   
 ##       ##       ##       ##          ##       ##   ##   ##       ##       
 ##       ##       ##       ##          ##       ##    ##  ##       ##       
 ##       ######## ######## ########    ##       ##     ## ######## ######## 